<svg width="54" height="54" viewBox="0 0 54 54" fill="none" xmlns="http://www.w3.org/2000/svg">
<path d="M24.8153 5.71498C25.4836 5.34382 26.2355 5.14905 27 5.14905C27.7645 5.14905 28.5164 5.34382 29.1847 5.71498L46.0935 15.1065C46.4441 15.3014 46.7361 15.5865 46.9395 15.9323C47.1428 16.278 47.25 16.6719 47.25 17.073V35.6017C47.2498 36.4042 47.035 37.192 46.628 37.8835C46.2209 38.575 45.6363 39.1451 44.9348 39.5347L29.1847 48.2872C28.5164 48.6584 27.7645 48.8532 27 48.8532C26.2355 48.8532 25.4836 48.6584 24.8153 48.2872L9.06525 39.5347C8.36405 39.1453 7.77967 38.5756 7.37261 37.8845C6.96554 37.1934 6.75059 36.4061 6.75 35.604V17.073C6.74998 16.6719 6.8572 16.278 7.06053 15.9323C7.26387 15.5865 7.55594 15.3014 7.9065 15.1065L24.8175 5.71498H24.8153Z" stroke="white" stroke-width="2" stroke-linecap="round" stroke-linejoin="round"/>
<path d="M6.75 15.75L27 27M27 27L47.25 15.75M27 27V48.375" stroke="white" stroke-width="2" stroke-linejoin="round"/>
<path d="M16.875 21.375L37.125 10.125M13.5 27.738L20.25 31.5" stroke="white" stroke-width="2" stroke-linecap="round" stroke-linejoin="round"/>
</svg>
