<svg width="274" height="274" viewBox="0 0 274 274" fill="none" xmlns="http://www.w3.org/2000/svg">
<path d="M159.833 194.083C203.97 194.083 239.75 158.303 239.75 114.167C239.75 70.0299 203.97 34.25 159.833 34.25C115.697 34.25 79.9167 70.0299 79.9167 114.167C79.9167 158.303 115.697 194.083 159.833 194.083Z" stroke="white" stroke-opacity="0.08" stroke-width="2" stroke-linecap="round" stroke-linejoin="round"/>
<path d="M239.75 114.167C239.75 103.569 235.54 93.4055 228.046 85.9119C220.553 78.4182 210.389 74.2083 199.792 74.2083C189.194 74.2083 179.031 78.4182 171.537 85.9119C164.043 93.4055 159.833 103.569 159.833 114.167M159.833 114.167C159.833 124.764 155.623 134.928 148.13 142.421C140.636 149.915 130.473 154.125 119.875 154.125C109.277 154.125 99.1138 149.915 91.6202 142.421C84.1266 134.928 79.9167 124.764 79.9167 114.167M159.833 194.083C170.431 194.083 180.595 189.873 188.088 182.38C195.582 174.886 199.792 164.723 199.792 154.125C199.792 143.527 195.582 133.364 188.088 125.87C180.595 118.377 170.431 114.167 159.833 114.167M159.833 34.25C149.236 34.25 139.072 38.4599 131.579 45.9535C124.085 53.4472 119.875 63.6107 119.875 74.2083C119.875 84.8059 124.085 94.9695 131.579 102.463C139.072 109.957 149.236 114.167 159.833 114.167M34.25 239.75L102.75 171.25" stroke="white" stroke-opacity="0.08" stroke-width="2" stroke-linecap="round" stroke-linejoin="round"/>
</svg>
