<svg width="274" height="275" viewBox="0 0 274 275" fill="none" xmlns="http://www.w3.org/2000/svg">
<path d="M206.724 196.578C190.308 210.277 169.746 217.708 148.418 217.708C147.085 217.708 145.752 217.684 144.468 217.585C121.585 216.593 100.06 207.106 83.8417 190.831C75.1279 182.087 68.3641 171.881 63.7729 160.511C59.3296 149.538 57.0833 137.919 57.0833 126.029C57.0833 114.139 59.3296 102.521 63.7729 91.5475C68.3641 80.1774 75.1279 69.9715 83.8417 61.227C92.5555 52.4829 102.726 45.6955 114.056 41.088C124.992 36.6292 136.569 34.375 148.418 34.375C160.267 34.375 171.844 36.6292 182.779 41.088C194.11 45.6955 204.28 52.4829 212.994 61.227C223.164 71.4083 230.594 83.4722 235.087 97.0469C239.382 110.002 240.74 124.023 239.036 137.597C238.271 143.567 236.938 149.488 235.038 155.185C229.188 172.488 221.548 184.208 206.724 196.578Z" stroke="white" stroke-opacity="0.08" stroke-width="4" stroke-linecap="round" stroke-linejoin="round"/>
<path d="M126.182 111.655C126.945 100.746 136.417 92.4676 147.32 93.2336C153.643 93.6639 159.392 96.5347 163.544 101.344C167.695 106.153 169.746 112.253 169.293 118.593C168.769 126.226 165.309 133.164 159.559 138.188C153.809 143.188 146.462 145.652 138.851 145.126C119.836 143.786 105.426 127.182 106.762 108.09C108.384 84.8358 128.568 67.2272 151.758 68.8543C165.5 69.811 178.073 76.1034 187.115 86.5345C196.181 96.9656 200.619 110.316 199.664 124.12C198.471 141.082 190.766 156.561 177.978 167.71C166.335 177.879 151.734 183.333 136.441 183.333C134.938 183.333 133.435 183.285 131.884 183.19C115.971 182.09 100.909 178.963 88.4792 169.01C76.3353 159.297 67.5153 146.556 62.7917 131.771" stroke="white" stroke-opacity="0.08" stroke-width="4" stroke-linecap="round" stroke-linejoin="round"/>
<path d="M79.9167 194.792L34.2448 243.405" stroke="white" stroke-opacity="0.08" stroke-width="4" stroke-linecap="round" stroke-linejoin="round"/>
</svg>
