<svg width="275" height="274" viewBox="0 0 275 274" fill="none" xmlns="http://www.w3.org/2000/svg">
<g clip-path="url(#clip0_10_50)">
<path fill-rule="evenodd" clip-rule="evenodd" d="M22.9167 125.583C22.9185 109.17 26.8664 92.9968 34.4299 78.4163C41.9935 63.8358 52.9526 51.2728 66.3898 41.7789C79.8271 32.285 95.3514 26.1365 111.663 23.8481C127.975 21.5597 144.6 23.198 160.146 28.6258C175.692 34.0537 189.706 43.1132 201.017 55.0458C212.327 66.9785 220.604 81.4371 225.154 97.2114C229.704 112.986 230.396 129.617 227.171 145.712C223.946 161.807 216.898 176.898 206.617 189.722L248.726 231.678C250.813 233.832 251.968 236.715 251.942 239.709C251.916 242.702 250.711 245.566 248.586 247.683C246.462 249.799 243.588 251 240.584 251.026C237.579 251.052 234.685 249.901 232.524 247.822L190.415 205.865C175.242 217.944 156.955 225.509 137.658 227.688C118.361 229.868 98.838 226.574 81.3369 218.186C63.8359 209.797 49.0678 196.656 38.7325 180.273C28.3973 163.891 22.915 144.933 22.9167 125.583ZM126.042 45.6667C105.813 45.6501 86.3251 53.2498 71.482 66.9433C56.6389 80.6368 47.5369 99.4127 45.9995 119.51C44.4621 139.606 50.6028 159.54 63.1915 175.317C75.7801 191.093 93.8869 201.548 113.884 204.587C96.2612 199.726 80.9569 188.759 70.7237 173.66C60.4904 158.561 55.9998 140.319 58.0594 122.215C59.95 105.477 68.4363 90.1731 81.6517 79.6693C94.8671 69.1654 111.729 64.3223 128.528 66.2052C135.483 66.9832 142.215 69.1186 148.341 72.4895C154.467 75.8603 159.867 80.4006 164.232 85.8509C168.596 91.3013 171.841 97.555 173.779 104.255C175.718 110.955 176.313 117.969 175.53 124.898C174.2 136.689 168.226 147.471 158.92 154.874C149.614 162.277 137.739 165.695 125.904 164.377C120.908 163.833 116.069 162.312 111.665 159.901C107.26 157.49 103.376 154.237 100.236 150.327C97.0958 146.418 94.7609 141.929 93.3651 137.119C91.9693 132.309 91.5401 127.271 92.1021 122.295C93.0832 113.664 97.4641 105.774 104.282 100.36C111.099 94.9455 119.796 92.4503 128.459 93.4226C139.689 94.6784 148.053 104.109 148.89 114.772C149.875 127.387 140.353 137 126.042 137C123.679 137.001 121.373 136.274 119.441 134.919C117.509 133.564 116.044 131.647 115.248 129.431L114.858 128.072L114.881 128.278C115.133 130.538 115.913 132.73 117.127 134.671L118.124 136.064C120.668 139.226 124.357 141.247 128.436 141.692C134.238 142.34 140.06 140.665 144.622 137.036C149.184 133.407 152.112 128.121 152.763 122.341C153.209 118.392 152.87 114.394 151.765 110.575C150.66 106.756 148.811 103.192 146.323 100.086C143.835 96.9794 140.758 94.3918 137.266 92.4708C133.774 90.5498 129.937 89.3331 125.973 88.8902C120.643 88.293 115.247 88.7478 110.094 90.2285C104.941 91.7092 100.13 94.1869 95.9381 97.5201C91.7459 100.853 88.2536 104.977 85.6609 109.655C83.0681 114.333 81.4256 119.474 80.8271 124.784C80.0283 131.793 80.6238 138.89 82.5794 145.669C84.5351 152.449 87.8126 158.778 92.2245 164.294C96.6365 169.811 102.096 174.407 108.292 177.82C114.488 181.233 121.298 183.396 128.333 184.185C145.819 186.149 166.616 179.367 182.096 167.06C196.235 155.826 203.832 141.487 205.975 122.478C206.021 122.124 206.078 121.77 206.147 121.428C205.078 100.979 196.172 81.7185 181.267 67.6212C166.361 53.524 146.593 45.6653 126.042 45.6667Z" fill="white" fill-opacity="0.08"/>
</g>
<defs>
<clipPath id="clip0_10_50">
<rect width="275" height="274" fill="white"/>
</clipPath>
</defs>
</svg>
