<svg width="34" height="34" viewBox="0 0 34 34" fill="none" xmlns="http://www.w3.org/2000/svg">
<g clip-path="url(#clip0_6_2802)">
<path fill-rule="evenodd" clip-rule="evenodd" d="M4.00565 1.08588C4.37747 0.71462 4.82395 0.426618 5.31549 0.240961C5.80704 0.055303 6.33243 -0.0237703 6.85684 0.0089806C7.38126 0.0417315 7.89273 0.185559 8.35736 0.430932C8.82198 0.676304 9.22916 1.01762 9.5519 1.43226L13.3663 6.33251C14.0654 7.23138 14.3119 8.40226 14.0356 9.50726L12.8733 14.161C12.8132 14.402 12.8164 14.6545 12.8827 14.8939C12.949 15.1334 13.076 15.3516 13.2515 15.5274L18.4726 20.7485C18.6487 20.9244 18.8672 21.0516 19.1071 21.1179C19.3469 21.1842 19.5998 21.1872 19.8411 21.1268L24.4928 19.9644C25.0381 19.828 25.6072 19.8174 26.1572 19.9334C26.7072 20.0494 27.2237 20.2889 27.6675 20.6338L32.5678 24.446C34.3294 25.8166 34.4909 28.4198 32.9142 29.9944L30.7169 32.1916C29.1444 33.7641 26.7941 34.4548 24.6033 33.6834C18.9958 31.7104 13.9045 28.5002 9.70702 24.2909C5.49801 20.094 2.28782 15.0035 0.314524 9.39676C-0.454726 7.20801 0.235899 4.85563 1.8084 3.28313L4.00565 1.08588Z" fill="white"/>
</g>
<defs>
<clipPath id="clip0_6_2802">
<rect width="34" height="34" fill="white"/>
</clipPath>
</defs>
</svg>
