<svg width="40" height="40" viewBox="0 0 40 40" fill="none" xmlns="http://www.w3.org/2000/svg">
<g clip-path="url(#clip0_15_3)">
<path d="M26.1388 0H13.86C2.65503 0 -0.0012207 2.65625 -0.0012207 13.8612V26.14C-0.0012207 37.345 2.65503 40.0013 13.86 40.0013H26.1388C37.3438 40.0013 40 37.345 40 26.14V13.8612C40 2.65625 37.3175 0 26.1388 0ZM32.2913 28.535H29.3875C28.2875 28.535 27.9488 27.6625 25.97 25.6575C24.2513 23.9912 23.49 23.77 23.0663 23.77C22.4675 23.77 22.2975 23.9388 22.2975 24.76V27.3837C22.2975 28.0875 22.0763 28.51 20.2138 28.51C17.1338 28.51 13.7163 26.6475 11.32 23.1775C7.70628 18.0925 6.71753 14.2837 6.71753 13.4963C6.71753 13.0725 6.88628 12.6762 7.70003 12.6762H10.61C11.3463 12.6762 11.6263 13.015 11.9125 13.8025C13.3513 17.9562 15.7475 21.595 16.7363 21.595C17.1013 21.595 17.27 21.4263 17.27 20.495V16.205C17.1588 14.2262 16.1175 14.0562 16.1175 13.3537C16.1175 13.015 16.3975 12.6762 16.8463 12.6762H21.4225C22.0413 12.6762 22.2688 13.015 22.2688 13.7437V19.5312C22.2688 20.1562 22.5488 20.3775 22.7175 20.3775C23.0825 20.3775 23.395 20.1562 24.0713 19.4788C26.1613 17.135 27.6588 13.5213 27.6588 13.5213C27.8538 13.0975 28.1925 12.7013 28.9288 12.7013H31.8388C32.7113 12.7013 32.9063 13.15 32.7113 13.775C32.3463 15.4675 28.785 20.4938 28.785 20.4938C28.4788 21.0013 28.3613 21.2225 28.785 21.7887C29.0975 22.2125 30.1138 23.0913 30.79 23.8787C32.0338 25.2913 32.99 26.4762 33.245 27.2962C33.5313 28.11 33.1088 28.5337 32.2875 28.5337L32.2913 28.535Z" fill="white"/>
</g>
<defs>
<clipPath id="clip0_15_3">
<rect width="40" height="40" fill="white"/>
</clipPath>
</defs>
</svg>
